<svg xmlns="http://www.w3.org/2000/svg" width="512" height="512"><style>.U{fill:#f4040b}.V{fill-rule:evenodd}.W{fill:#b6020b}</style><g class="V"><path d="M227 132h1v1h-1zm-81 12 1-2v2zm80 3h1l-1 3zm-79 48-1-11h1zm-1 56 1-15v15zm-1 51 1-9v9zm81 52v-3l1 3zm-80 7-1-2h1zm0 20h1v1h-1zm1 12h1v1h-1z" class="W" opacity=".1"/><path d="M264 27v-1l2 1zm-13 75h1v1h-1zm10 0h1v1h-1zm-14 1h1v1h-1zm-5 2h1v1h-1zm38 11h1v1h-1zm1 3h1v1h-1zm3 13h1v1h-1zm80 5v-2l1 2zm-79 3h1v1h-1zm80 12v-3l1 3zm-78 2-1-3h1zm79 14h1v1h-1zm0 11v-4h1v4zm-80 2 1-4v4zm73 3v-1h3zm-16 1v-1h3zm-16 1v-1h3zm-19 1v-1h2zm-16 1v-1h2zm9 125v-1l2 1zm17 1v-1l3 1zm14 1v-1l3 1zm18 1v-1l3 1zm13 50v-2h1zm-79 11 1-3v3zm78 2h1v1h-1zm-1 8h1v1h-1zm-1 7h1v1h-1zm-1 6h1v1h-1zm-1 5h1v1h-1zm-209 13h1v1h-1zm1 4h1v1h-1zm201 6h1v1h-1zm-198 3h1v1h-1zm4 8h1v1h-1zm2 3h1v1h-1zm184 2h1v1h-1zm-182 1h1v1h-1zm180 2h1v1h-1zm-177 2h1v1h-1zm175 1h1v1h-1zm-169 5h1v1h-1zm165 0h1v1h-1zm-5 5h1v1h-1zm-153 1h1v1h-1zm146 5h1v1h-1zm-137 1h1v1h-1zm128 5h1v1h-1zm-112 3h1v1h-1zm5 2h1v1h-1zm3 1h1v1h-1zm3 1h1v1h-1zm86 0h1v1h-1zm-82 1h1v1h-1zm79 0h1v1h-1zm-75 1h1v1h-1zm5 1h1v1h-1zm5 1h1v1h-1zm6 1h1v1h-1zm42 0h1v1h-1zm-34 2v-1h2v1zm26-1h1v1h-1z" class="U" opacity=".17"/><path fill="#af020b" d="M149 106h1v1h-1zm-1 12 1-2v2zm82 0h1v1h-1zm-1 3h1v1h-1zm-82 6v-2h1v2zm81-2h1v1h-1zm-1 6h1v1h-1zm-1 16v-5h1v5zm-80 37v-40h1v40zm0 78v-11h1v11zm-1 51v-11h1v11zm0 46v-5h1v5zm81-5h1v6h-1zm1 23v-2h1v2zm-81 4v-4h1v4zm82 3h1v1h-1zm1 5h1v1h-1zm-82 4v-2h1v2zm2 9-1-2h1z" opacity=".26"/></g><path d="M236 26h1v1h-1zm25 1v-1h3v1zm-33 0h1v1h-1zm44 0h1v1h-1zm7 1h1v1h-1zm-63 1h1v1h-1zm-4 1h1v1h-1zm146 69h1v1h-1zm-108 3h1v1h-1zm12 0h1v1h-1zm4 1h1v1h-1zm93 0h1v1h-1zm-115 1h1v1h-1zm117 9h1v1h-1zm1 6h1v1h-1zm-80 3h1v1h-1zm1 4h1v1h-1zm80 2v-2h1v2zm-79 3h1v1h-1zm80 8v-2h1v2zm-79 0h1v1h-1zm1 12v-3h1v3zm79 5v-4h1v4zm1 26v-3h1v3zm-80 2v-3h1v3zm70 0v-1h3v1zm-16 1v-1h3v1zm-19 1v-1h6v1zm-16 1v-1h3v1zm-18 0h1v1h-1zm2 1v-1h3v1zm10 125v-1h2v1zm16 1v-1h3v1zm15 1v-1h2v1zm18 1v-1h2v1zm-63 44v-23h1v23zm78 4v-4h1v4zm-79 15v-2h1v2zm78 0v-2h1v2zm-1 7h1v1h-1zm-1 7h1v1h-1zm-1 6h1v1h-1zm-1 5h1v1h-1zm-113 2h1v1h-1zm112 3h1v1h-1zm-209 3h1v1h-1zm208 1h1v1h-1zm-1 3h1v1h-1zm-206 1h1v1h-1zm205 2h1v1h-1zm-1 3h1v1h-1zm-202 3h1v1h-1zm201 0h1v1h-1zm-200 3h1v1h-1zm198 2h1v1h-1zm-1 2h1v1h-1zm-195 1h1v1h-1zm1 2h1v1h-1zm1 2h1v1h-1zm188 5h1v1h-1zm-156 26h1v1h-1zm2 1h1v1h-1zm122 4h1v1h-1zm-112 1h1v1h-1zm106 2h1v1h-1zm-2 1h1v1h-1zm-9 3h1v1h-1zm-4 1h1v1h-1zm-3 1h1v1h-1zm-56 1h1v1h-1zm52 0h1v1h-1zm-46 1h1v1h-1zm40 0h1v1h-1zm-31 2v-1h2v1zm20 0v-1h4v1z" class="U" opacity=".33"/><path fill="#89030b" d="M149 110h1v1h-1zm81 7h1v1h-1zm-1 3h1v1h-1zm-1 4h1v1h-1zm-81 3h1v1h-1zm80 3h1v1h-1zm-2 146v-8h1v8zm0 20v-6h1v6zm0 19v-10h1v10zm0 5v-2h1v2zm-78 70h1v1h-1zm82 0h1v1h-1zm1 3h1v1h-1zm1 2h1v1h-1zm8 8h1v1h-1z" opacity=".44"/><path d="M237 27v-1h2v1zm22 0v-1h2v1zm-30 0h1v1h-1zm42 0h1v1h-1zm-49 1h1v1h-1zm56 0h1v1h-1zm-61 1h1v1h-1zm67 0h1v1h-1zm4 1h1v1h-1zm4 1h1v1h-1zm-90 2h1v1h-1zm97 0h1v1h-1zm3 1h1v1h-1zm3 1h1v1h-1zm3 1h1v1h-1zm5 2h1v1h-1zM154 83h1v1h-1zm200 3h1v1h-1zm1 3h1v1h-1zm-204 3h1v1h-1zm-1 4h1v1h-1zm-1 4h1v1h-1zm100 2h1v1h-1zm14 0h1v1h-1zm97 6h1v1h-1zm-79 10h1v1h-1zm81 2h1v1h-1zm-79 5h1v1h-1zm80 3h1v1h-1zm-79 2h1v1h-1zm1 8h1v1h-1zm79 1h1v1h-1zm-78 9v-2h1v2zm79 12v-4h1v4zm0 22h1v1h-1zm-12 2v-1h3v1zm-66 3-1-3h1zm51-2v-1h2v1zm-20 1v-1h3v1zm-15 1v-1h2v1zm-15 0h1v1h-1zm9 126v-1h2v1zm16 1v-1h2v1zm14 1v-1h3v1zm18 1v-1h3v1zm15 1v-1h2v1zm3 43v-43l1 43zm-78-23v-4h1v4zm0 26v-3h1v3zm77 13h1v1h-1zm-78 5v-2h1v2zm77 4h1v1h-1zm-78 1h1v1h-1zm77 6h1v1h-1zm-212 19h1v1h-1zm2 10h1v1h-1zm55 55h1v1h-1zm3 1h1v1h-1zm3 1h1v1h-1zm90 0h1v1h-1zm-87 1h1v1h-1zm84 0h1v1h-1zm-80 1h1v1h-1zm4 1h1v1h-1zm5 1h1v1h-1zm6 1h1v1h-1zm50 0h1v1h-1zm-44 1h1v1h-1zm38 0h1v1h-1zm-28 2v-1h18v1z" class="U V" opacity=".51"/><path fill="#b8030c" d="M240 106h1v1h-1zm-91 5h1v1h-1zm-1 9v-2h1v2zm-1 10v-2h1v2zm80-1h1v1h-1zm-1 13v-3h1v3zm-1 126v-26h1v26zm-79 6v-12h1v12zm79 16v-14h1v14zm0 15v-9h1v9zm-80 49v-41h1v41zm80-36v-3h1v3zm0 12v-10h1v10zm1 36v-6h1v6zm-80 11v-5h1v5zm81 2v-2h1v2zm1 6h1v1h-1zm-81 5v-2h1v2zm1 10v-2h1v2z" opacity=".51"/><path fill="#f3040b" d="M239 27v-1h3v1zm17 0v-1h3v1zm-26 0h1v1h-1zm40 0h1v1h-1zm-47 1h1v1h-1zm54 0h1v1h-1zm6 1h1v1h-1zm-70 1h1v1h-1zm74 0h1v1h-1zm-78 1h1v1h-1zm86 1h1v1h-1zm-98 3h1v1h-1zm113 2h1v1h-1zm5 2h1v1h-1zm2 1h1v1h-1zm4 2h1v1h-1zm2 1h1v1h-1zM163 65h1v1h-1zm-3 5h1v1h-1zm-1 2h1v1h-1zm-1 2h1v1h-1zm-1 2h1v1h-1zm-2 5h1v1h-1zm197 0h1v1h-1zm-199 5h1v1h-1zm-1 3h1v1h-1zm204 4h1v1h-1zm1 3h1v1h-1zm1 4h1v1h-1zm-209 1h1v1h-1zm210 3h1v1h-1zm-210 1h1v1h-1zm211 4h1v1h-1zm1 7v-2h1v2zm-79 5h1v1h-1zm80 0h1v1h-1zm-78 8h1v1h-1zm79 0h1v1h-1zm-78 9v-2h1v2zm79 5v-3h1v3zm-78 3v-2h1v2zm79 19v-5h1v5zm-13 18h1v1h-1zm-17 2v-1h3v1zm-20 1v-1h3v1zm-14 1v-1h2v1zm-6 126v-1h2v1zm15 1v-1h3v1zm16 0h1v1h-1zm17 2v-1h2v1zm15 1v-1h2v1zm-73 16v-6h1v6zm0 32v-2h1v2zm77 11v-2h1v2zm-78 5h1v1h-1zm77 3h1v1h-1zm-79 6h1v1h-1zm78 1h1v1h-1zm-1 7h1v1h-1zm-86 4h1v1h-1zm-2 1h1v1h-1zm87 0h1v1h-1zm-210 2h1v1h-1zm118 0h1v1h-1zm-22 1h1v1h-1zm18 0h1v1h-1zm-12 2v-1h8v1zm107 0h1v1h-1zm-209 2h1v1h-1zm208 2h1v1h-1zm-207 4h1v1h-1zm145 64h1v1h-1zm-66 2h1v1h-1zm59 0h1v1h-1zm-5 1h1v1h-1zm-42 1h1v1h-1zm36 0h1v1h-1z" opacity=".67"/><path fill="#b6030c" d="M225 168v-12h1v86h-1zm-79 120v-14h1v14zm79 52v-10h1v15h-1zm1 28v-2h1v2zm-80 4v-4h1v4zm95 33h1v1h-1z" opacity=".73"/><g class="V"><path fill="#a5020a" d="M149 114v-2h1zm-1 9v-3h1zm79 5h1v1h-1zm-80 7v-5h1v5zm79 2 1-1v3h-1zm-1 18h1v1h-1zm-79 213v-2h1v2zm81 3-1-3h1zm0 10v-2h1v2zm-80 7v-3h1v3zm81-2h1v1h-1zm1 5h1v1h-1zm-81 7v-2l1 2zm87 1h1v1h-1z" opacity=".74"/><path d="M242 27v-1h14v1zm-11 0h1v1h-1zm39 1-2-1h2zm-46 0h1v1h-1zm52 0h1v1h-1zm-58 1h1v1h-1zm64 0h1v1h-1zm9 2h1v1h-1zm-85 1h1v1h-1zm-3 1h1v1h-1zm95 0h1v1h-1zm-98 1h1v1h-1zm101 0h1v1h-1zm3 1h1v1h-1zm-109 1h1v1h-1zm112 0h1v1h-1zm5 2h1v1h-1zm-127 3h1v1h-1zm134 0h1v1h-1zm7 4h1v1h-1zm5 4h1v1h-1zm1 1h1v1h-1zm1 1h1v1h-1zm1 1h1v1h-1zm-164 3h1v1h-1zm-3 4h1v1h-1zm174 2h1v1h-1zm-176 1h1v1h-1zm-3 5h1v1h-1zm183 0h1v1h-1zm1 2h1v1h-1zM156 79h1v1h-1zm195 0h1v1h-1zm-197 5h1v1h-1zm199 0h1v1h-1zm1 3h1v1h-1zm1 3h1v1h-1zm-204 3h1v1h-1zm-1 4h1v1h-1zm207 0h1v1h-1zm-208 5h1v1h-1zm210 3h1v1h-1zm1 5h1v1h-1zm1 6h1v1h-1zm2 8-1-2h1zm1 8-1-2h1zm1 14-1-3h1zm1 25-1-6h1v4zm-16 13 2-1v1zm-17 1 2-1v1zm-20 1 2-1v1zm-15 1 3-1v1zm-4 125h1v1h-1zm-9 1h1v1h-1zm25 1-2-1h2zm16 1-2-1h2zm17 1-3-1h3zm15 1-2-1h2zm-73 10v-8l1 8zm0 42v-4h1zm77 5 1-3v3zm-78 8h1v1h-1zm77 2 1-2v2zm-78 3h1v1h-1zm-2 6h1v1h-1zm-1 2h1v1h-1zm-5 6h1v1h-1zm-6 3h1v1h-1zm-6 2h1v1h-1zm-14 1h1v1h-1zm9 0h1v1h-1z" class="U" opacity=".84"/><path d="M241 105h1v1h-1zm-94 32v-2h1zm-1 154v-3h1zm80 56-1-2h1zm-80 19v-2l1 2z" class="W" opacity=".98"/></g><path fill="#760309" d="m230 117-23-8 17-3h16v1l-1 1-1 1-1 1-1 1-1 1-1 1-1 1-1 1-1 1v1zm-20 288 20-12 1 1v1l1 1 1 1 1 1 1 1 1 1h1l1 1 1 1v1l1 1v1h-27z" opacity=".99"/><path fill="#a1020a" d="M150 105h1v1h-1zm0 5 77 19v7l-1 1-78-12v-2l1-3v-6l1-2zm-2 277 79-14v6l-68 21-6 5h-4v-7l-1-2zm79-6h1v1h-1zm1 7h1v1h-1zm-66 12 1-1v1l-1 1zm-1 1-2-1h2zm7 4 3-1 12 1h11v1h-26z" class="V"/><path fill="#f4030b" d="m231 28 1-1h36l2 1h6l1 1h5l1 1h4l1 1h3l1 1h3l1 1h2l1 1h2l1 1h2l1 1h2l1 1h2l1 1h1l1 1h2l1 1h1l1 1h1l1 1h1l1 1h1l1 1h1l1 1 1 1h1l1 1 1 1 1 1 1 1 1 1 1 1 1 1 1 1 1 1 1 1 1 1v1l1 1 1 1v1l1 1 1 1 1 1v1l1 1v1l1 1v1l1 1 1 1v1l1 1v1l1 1v1l1 1v2l1 1v1l1 1v2l1 1v2l1 1v2l1 1v2l1 1v3l1 1v2l1 1v4l1 1v4l1 1v5l1 1v5l1 2v6l1 2v11l1 3v19l1 6v11h-1l-1 1h-12l-2 1h-15l-2 1h-18l-2 1h-12l-3 1h-11v-43l-1-1v-7l-1-1v-6l-1-1v-3l-1-1v-3l-1-1v-2l-1-1v-1l-1-1v-1l-1-1v-1l-1-1-1-1-1-1-1-1-1-1-1-1h-1l-1-1h-1l-1-1h-1l-1-1h-2l-1-1h-15l-1 1h-1l-1 1h-2l-1 1h-2l-67 1h-19l-2-1h-4v-2l1-1v-4l1-1v-3l1-1v-3l1-1v-2l1-1v-1l1-1v-2l1-1v-1l1-1v-2l1-1v-1l1-1v-1l1-1v-1l1-1v-1l1-1 1-1v-1l1-1v-1l1-1 1-1v-1l1-1 1-1v-1l1-1 1-1 1-1v-1l1-1 1-1 1-1 1-1 1-1 1-1 1-1 1-1 1-1 1-1 1-1h1l1-1h1l1-1 1-1h1l1-1h1l1-1h1l1-1h2l1-1h1l1-1h2l1-1h2l1-1h2l1-1h2l1-1h3l1-1h4l1-1h5l1-1h5zm55 285v-1h8l1 1h13l2 1h14l2 1h14l3 1h13l2 1h5v54l-1 3v8l-1 2v6l-1 1v6l-1 1v4l-1 1v4l-1 1v3l-1 1v3l-1 1v2l-1 1v2l-1 1v2l-1 1v2l-1 1v1l-1 1v1l-1 1v2l-1 1v1l-1 1v1l-1 1v1l-1 1-1 1v1l-1 1v1l-1 1-1 1v1l-1 1-1 1v1l-1 1-1 1-1 1-1 1v1l-1 1-1 1-1 1-1 1h-1l-1 1-1 1-1 1-1 1-1 1-1 1h-1l-1 1-1 1-1 1h-1l-1 1-1 1h-1l-1 1h-1l-1 1h-1l-1 1-1 1h-1l-1 1h-2l-1 1h-1l-1 1h-2l-1 1h-2l-1 1h-3l-1 1h-2l-1 1h-3l-1 1h-4l-1 1h-5l-1 1h-33l-1-1h-6l-1-1h-4l-1-1h-5l-1-1h-3l-1-1h-3l-1-1h-2l-1-1h-2l-1-1h-2l-1-1h-2l-1-1h-1l-1-1h-2l-1-1h-1l-1-1h-1l-1-1h-1l-1-1-1-1h-1l-1-1h-1l-1-1h-1l-1-1h-1l-1-1-1-1h-1l-1-1-1-1-1-1h-1l-1-1-1-1-1-1-1-1-1-1-1-1h-1l-1-1-1-1-1-1-1-1-1-1v-1l-1-1-1-1-1-1v-1l-1-1-1-1v-1l-1-1-1-1v-1l-1-1v-1l-1-1v-1l-1-1v-1l-1-1v-1l-1-1v-2l-1-1v-2l-1-1v-3l-1-1v-4l-1-1v-5l-1-1v-3h96l1 1h4l1 1h8l1-1h4l1-1h2l1-1h2l1-1h1l1-1h1l1-1h1l1-1 1-1 1-1 1-1v-1l1-1 1-1v-1l1-1v-2l1-1v-2l1-1v-4l1-1v-13l1-4v-38l-1-8v-5z"/><path fill="#b4020b" d="M152 105h1v1h-1zm-5 39v-2l79 7v5l-1 1v13l-57-9-11 20-10-12zm-1 200 5-11 74 7v5l1 2v12l-79 11v-4l-1-2v-10zm5 61h1v1h-1zm58 1v-1h4v1zm24-1h1v1h-1z"/><path fill="#970209" d="M150 106h32l47 16v1l-1 1v3l-1 1v1l-77-19zm9 294 68-21v2l1 1v4l-6 3h7v1l-58 14-3 1h-15zl2 1h1l1-1h1v-1h-1l-1 1zm69-13h1v1h-1z" class="V"/><path fill="#880309" d="m229 122-47-16h42l-17 3 23 8v2l-1 1v1zm-7 267 6-3v3zm-51 15 58-14v1l1 1v1l-20 12h-27z"/><path fill="#b7020b" d="M153 106v-1l2 1zm21 0 67-1v1h-59zm-27 61 10 12 11-20 57 9v172l-74-7-5 11v-53l1-3V184zm3 238h1v1h-1zm63 1v-1h20v1zm21-1h1v1h-1zm2 1v-1h4v1z"/><path fill="#a8020a" d="M151 105h1v1h-1zm-3 22v-2l78 12v12l-79-7v-5l1-2v-7zm-1 243 79-11v9l1 3v2l-79 14v-2l-1-1v-12zm16 29h1v1h-1zm-2 1h1v1h-1zm-12 5h1v1h-1zm3 1v-1h16v1zm42 0v-1h15v1zm41-1h1v1h-1zm5 0h1v1h-1z"/><path d="M233 113h1v1h-1zm-86 11h1v1h-1zm80 250h1v1h-1zm1 9h1v1h-1zm1 5h1v1h-1zm2 6h1v1h-1zm5 5h1v1h-1z" class="W" opacity=".1"/><path d="M235 26h1v1h-1zm-8 1h1v1h-1zm46 0h1v1h-1zm7 1h1v1h-1zm-65 1h1v1h-1zm70 0h1v1h-1zm-74 1h1v1h-1zm78 0h1v1h-1zm4 1h1v1h-1zm-92 2h1v1h-1zm99 0h1v1h-1zm3 1h1v1h-1zm-107 1h1v1h-1zm110 0h1v1h-1zm3 1h1v1h-1zm2 1h1v1h-1zm3 1h1v1h-1zm2 1h1v1h-1zm2 1h1v1h-1zm2 1h1v1h-1zm2 1h1v1h-1zm2 1h1v1h-1zm3 2h1v1h-1zm5 4h1v1h-1zm1 1h1v1h-1zm1 1h1v1h-1zm-164 3h1v1h-1zm-3 4h1v1h-1zm-4 6h1v1h-1zm182 2h1v1h-1zm-185 3h1v1h-1zm-1 2h1v1h-1zm-1 2h1v1h-1zm-1 2h1v1h-1zm-3 7h1v1h-1zm200 3h1v1h-1zm1 3h1v1h-1zm-204 3h1v1h-1zm207 7h1v1h-1zm1 4h1v1h-1zm2 10h1v1h-1zm1 6h1v1h-1zm1 7h1v1h-1zm-91 277h1v1h-1zm-2 1h1v1h-1zm-24 3h1v1h-1zm-81 44h1v1h-1zm1 1h1v1h-1zm2 2h1v1h-1zm1 1h1v1h-1zm165 2h1v1h-1zm-1 1h1v1h-1zm-1 1h1v1h-1zm-1 1h1v1h-1z" class="U" opacity=".17"/><path fill="#af020b" d="M239 107h1v1h-1zm-1 1h1v1h-1zm-89 1h1v1h-1zm88 0h1v1h-1zm-1 1h1v1h-1zm-1 1h1v1h-1zm-3 3h1v1h-1zm-2 278h1v1h-1zm9 10h1v1h-1zm-91 2h1v1h-1z" opacity=".26"/><path d="M221 28h1v1h-1zm-13 3h1v1h-1zm88 1h1v1h-1zm-97 2h1v1h-1zm-5 2h1v1h-1zm-10 5h1v1h-1zm-3 2h1v1h-1zm-9 9h1v1h-1zm-1 1h1v1h-1zm167 3h1v1h-1zm3 4h1v1h-1zm-176 1h1v1h-1zm178 2h1v1h-1zm-181 3h1v1h-1zm184 2h1v1h-1zm5 10h1v1h-1zm-196 2h1v1h-1zm197 0h1v1h-1zm-199 5h1v1h-1zm-1 3h1v1h-1zm204 4h1v1h-1zm-206 3h1v1h-1zm207 0h1v1h-1zm-208 4h1v1h-1zm211 8h1v1h-1zm-85 1h1v1h-1zm1 1h1v1h-1zm1 1h1v1h-1zm85 206h1v1h-1zm-79 69h1v1h-1zm-1 4h1v1h-1zm-1 3h1v1h-1zm-1 2h1v1h-1zm-1 2h1v1h-1zm-5 5h1v1h-1zm-6 3h1v1h-1zm-26 1h1v1h-1zm23 0h1v1h-1zm-4 1h1v1h-1zm84 34h1v1h-1zm-7 11h1v1h-1zm-171 1h1v1h-1zm8 7h1v1h-1zm1 1h1v1h-1zm4 3h1v1h-1zm3 2h1v1h-1zm141 0h1v1h-1zm-4 3h1v1h-1zm-128 2h1v1h-1zm125 0h1v1h-1zm-7 4h1v1h-1zm-2 1h1v1h-1z" class="U" opacity=".33"/><path fill="#89030b" d="M231 115h1v1h-1zm1 281h1v1h-1zm1 1h1v1h-1zm1 1h1v1h-1zm3 2h1v1h-1zm1 1h1v1h-1zm2 3h1v1h-1z" opacity=".44"/><path d="M205 32h1v1h-1zm-13 5h1v1h-1zm-2 1h1v1h-1zm-2 1h1v1h-1zm-2 1h1v1h-1zm-6 4h1v1h-1zm145 0h1v1h-1zm3 2h1v1h-1zm-154 4h1v1h-1zm-1 1h1v1h-1zm163 3h1v1h-1zm1 1h1v1h-1zm-169 2h1v1h-1zm172 2h1v1h-1zm-176 4h1v1h-1zm180 2h1v1h-1zm-183 3h1v1h-1zm186 2h1v1h-1zm1 2h1v1h-1zm1 2h1v1h-1zm1 2h1v1h-1zm-194 2h1v1h-1zm197 5h1v1h-1zm-107 20h1v1h-1zm23 1h1v1h-1zm2 1h1v1h-1zm3 2h1v1h-1zm5 6h1v1h-1zm1 2h1v1h-1zm71 312h1v1h-1zm-3 7h1v1h-1zm-1 2h1v1h-1zm-1 2h1v1h-1zm-188 2h1v1h-1zm184 5h1v1h-1zm-180 1h1v1h-1zm178 2h1v1h-1zm-3 4h1v1h-1zm-12 12h1v1h-1zm-140 2h1v1h-1zm9 5h1v1h-1zm2 1h1v1h-1zm2 1h1v1h-1z" class="U" opacity=".51"/><path fill="#f3040b" d="M183 42h1v1h-1zm-4 3h1v1h-1zm-1 1h1v1h-1zm-1 1h1v1h-1zm152 0h1v1h-1zm-153 1h1v1h-1zm154 0h1v1h-1zm-155 1h1v1h-1zm160 4h1v1h-1zm-166 3h1v1h-1zm-3 4h1v1h-1zm176 2h1v1h-1zm-75 41h1v1h-1zm6 3h1v1h-1zm5 5h1v1h-1zm7 201h1v1h-1zm-7 86h1v1h-1zm-1 1h1v1h-1zm-1 1h1v1h-1zm79 15h1v1h-1zm-205 5h1v1h-1zm203 1h1v1h-1zm-202 3h1v1h-1zm201 0h1v1h-1zm-200 3h1v1h-1zm1 3h1v1h-1zm4 8h1v1h-1zm3 5h1v1h-1zm3 4h1v1h-1zm173 6h1v1h-1zm-163 4h1v1h-1zm1 1h1v1h-1zm5 4h1v1h-1zm147 1h1v1h-1zm-144 1h1v1h-1zm5 3h1v1h-1zm134 0h1v1h-1zm-3 2h1v1h-1zm-3 2h1v1h-1zm-12 6h1v1h-1zm-80 4h1v1h-1z" opacity=".67"/><path fill="#a5020a" d="M229 119h1v1h-1zm-1 4h1v1h-1z" opacity=".74"/><path d="M339 58h1v1h-1zm-91 44h1v1h-1zm16 0h1v1h-1zm-21 2h1v1h-1zm38 13h1v1h-1zm1 3h1v1h-1zm1 4h1v1h-1zm1 4h1v1h-1zm1 7h1v1h-1zm1 8h1v1h-1zm78 39h1v1h-1zm-4 208h1v1h-1zm-1 7h1v1h-1zm-1 5h1v1h-1zm-1 5h1v1h-1zm-209 2h1v1h-1zm208 2h1v1h-1zm-207 4h1v1h-1zm205 3h1v1h-1zm-4 11h1v1h-1zm-1 2h1v1h-1zm-195 1h1v1h-1zm1 2h1v1h-1zm1 2h1v1h-1zm3 5h1v1h-1zm185 0h1v1h-1zm-1 2h1v1h-1zm-182 1h1v1h-1zm180 2h1v1h-1zm-177 2h1v1h-1zm175 1h1v1h-1zm-4 5h1v1h-1zm-164 1h1v1h-1zm1 1h1v1h-1zm157 4h1v1h-1zm-151 1h1v1h-1zm150 0h1v1h-1zm-1 1h1v1h-1zm-5 4h1v1h-1zm-133 2h1v1h-1zm2 1h1v1h-1zm122 3h1v1h-1zm-2 1h1v1h-1zm-110 1h1v1h-1zm2 1h1v1h-1zm3 1h1v1h-1zm99 0h1v1h-1zm-96 1h1v1h-1zm3 1h1v1h-1zm88 0h1v1h-1zm-85 1h1v1h-1zm82 0h1v1h-1zm-78 1h1v1h-1zm74 0h1v1h-1zm-3 1h1v1h-1zm-61 1h1v1h-1zm57 0h1v1h-1zm-52 1h1v1h-1zm47 0h1v1h-1zm-40 1h1v1h-1zm34 0h1v1h-1z" class="U" opacity=".84"/><path d="M225 154h1v1h-1z" class="W" opacity=".98"/><path fill="#760309" d="M194 402h1v1h-1z" opacity=".99"/><path fill="#a1020a" d="M227 127h1v1h-1zm-80 257h1v1h-1zm27 10 2-1v1zm-3 0h1v1h-1zm2 0h1v1h-1zm-4 2 1-1h1l-2 2h-1zm-2 2h1v1h-1zm-3 1h1v1h-1z"/><path fill="#880309" d="M212 390h1v1h-1zm-18 3h1v1h-1zm2 0h1v1h-1z"/><path fill="#b7020b" d="M192 338h1v1h-1z"/><path fill="#a8020a" d="M176 393h1v1h-1zm-4 1h1v1h-1zm-3 1h1v1h-1zm-2 3 1-1h1l-1 1zm-1 0h1v1h-1z"/></svg>